<svg width="30" height="32" viewBox="0 0 30 32" fill="none" xmlns="http://www.w3.org/2000/svg">
<path d="M8.20372 31.3677V26.2636V5.67133L4.15566 0.567261H19.9959C21.8732 0.567261 23.5013 0.889932 24.8799 1.53527C26.288 2.15128 27.3733 3.04596 28.136 4.21931C28.928 5.36333 29.324 6.74201 29.324 8.35537V8.79537C29.324 10.2034 29.06 11.3621 28.532 12.2714C28.004 13.1514 27.3733 13.8408 26.64 14.3394C25.9359 14.8088 25.2613 15.1461 24.6159 15.3515V16.1435C25.2613 16.3195 25.9653 16.6568 26.728 17.1555C27.4906 17.6248 28.136 18.3142 28.664 19.2235C29.2213 20.1329 29.5 21.3209 29.5 22.7876V23.2276C29.5 24.9289 29.104 26.3956 28.312 27.6276C27.52 28.8303 26.42 29.7543 25.0119 30.3997C23.6333 31.045 22.0199 31.3677 20.1719 31.3677H8.20372ZM14.0118 26.0876H19.4679C20.7292 26.0876 21.7412 25.7796 22.5039 25.1636C23.2959 24.5476 23.6919 23.6676 23.6919 22.5236V22.0835C23.6919 20.9395 23.3106 20.0595 22.5479 19.4435C21.7852 18.8275 20.7585 18.5195 19.4679 18.5195H14.0118V26.0876ZM14.0118 13.2394H19.3799C20.5825 13.2394 21.5652 12.9314 22.3279 12.3154C23.1199 11.6994 23.5159 10.8487 23.5159 9.76338V9.32338C23.5159 8.2087 23.1346 7.35802 22.3719 6.77134C21.6092 6.15534 20.6119 5.84733 19.3799 5.84733H14.0118V13.2394Z" fill="#3AB795"/>
<path d="M3.46784 31.4327C2.63476 31.4327 1.92664 31.162 1.34349 30.6205C0.781163 30.0582 0.5 29.3396 0.5 28.4649C0.5 27.5902 0.781163 26.8821 1.34349 26.3406C1.92664 25.7782 2.63476 25.4971 3.46784 25.4971C4.32174 25.4971 5.02986 25.7782 5.59218 26.3406C6.15451 26.8821 6.43567 27.5902 6.43567 28.4649C6.43567 29.3396 6.15451 30.0582 5.59218 30.6205C5.02986 31.162 4.32174 31.4327 3.46784 31.4327Z" fill="#073B3A"/>
</svg>
