<svg width="150" height="160" viewBox="0 0 150 160" fill="none" xmlns="http://www.w3.org/2000/svg">
<path d="M39.8468 159.312V132.912V26.4004L18.9086 0H100.841C110.551 0 118.972 1.66899 126.103 5.00697C133.386 8.19322 139 12.8209 142.945 18.8899C147.041 24.8072 149.09 31.9384 149.09 40.2833V42.5592C149.09 49.842 147.724 55.8352 144.993 60.5387C142.262 65.0905 139 68.6561 135.207 71.2354C131.565 73.6631 128.076 75.4079 124.738 76.47V80.5666C128.076 81.477 131.717 83.2218 135.662 85.8011C139.607 88.2288 142.945 91.7943 145.676 96.4978C148.559 101.201 150 107.346 150 114.933V117.208C150 126.009 147.952 133.595 143.855 139.967C139.758 146.188 134.069 150.968 126.786 154.306C119.655 157.643 111.31 159.312 101.751 159.312H39.8468ZM69.8886 132.002H98.1096C104.634 132.002 109.868 130.409 113.813 127.222C117.91 124.036 119.958 119.484 119.958 113.567V111.291C119.958 105.374 117.986 100.822 114.041 97.6358C110.096 94.4495 104.786 92.8564 98.1096 92.8564H69.8886V132.002ZM69.8886 65.5457H97.6545C103.875 65.5457 108.958 63.9526 112.903 60.7663C117 57.5801 119.048 53.18 119.048 47.5662V45.2903C119.048 39.5247 117.075 35.1246 113.131 32.0901C109.186 28.9038 104.027 27.3107 97.6545 27.3107H69.8886V65.5457Z" fill="#F0F0F0"/>
<path d="M15.3509 159.649C11.0419 159.649 7.37919 158.249 4.36288 155.448C1.45429 152.539 0 148.823 0 144.298C0 139.774 1.45429 136.111 4.36288 133.31C7.37919 130.402 11.0419 128.947 15.3509 128.947C19.7676 128.947 23.4303 130.402 26.3389 133.31C29.2475 136.111 30.7018 139.774 30.7018 144.298C30.7018 148.823 29.2475 152.539 26.3389 155.448C23.4303 158.249 19.7676 159.649 15.3509 159.649Z" fill="#3AB795"/>
</svg>
