<svg width="1280" height="720" viewBox="0 0 1280 720" fill="none" xmlns="http://www.w3.org/2000/svg">
<line x1="1280" y1="48.7876" x2="0.000122143" y2="48.7877" stroke="white" stroke-opacity="0.03" stroke-width="2"/>
<line x1="1280" y1="1" x2="0.000122158" y2="1.00011" stroke="white" stroke-opacity="0.03" stroke-width="2"/>
<line x1="1280" y1="335.513" x2="0.000122143" y2="335.514" stroke="white" stroke-opacity="0.03" stroke-width="2"/>
<line x1="1280" y1="622.239" x2="0.000122143" y2="622.239" stroke="white" stroke-opacity="0.03" stroke-width="2"/>
<line x1="1280" y1="192.15" x2="0.000122143" y2="192.151" stroke="white" stroke-opacity="0.03" stroke-width="2"/>
<line x1="1280" y1="478.876" x2="0.000122143" y2="478.876" stroke="white" stroke-opacity="0.03" stroke-width="2"/>
<line x1="1280" y1="96.5752" x2="0.000122143" y2="96.5754" stroke="white" stroke-opacity="0.03" stroke-width="2"/>
<line x1="1280" y1="383.301" x2="0.000122143" y2="383.301" stroke="white" stroke-opacity="0.03" stroke-width="2"/>
<line x1="1280" y1="670.027" x2="0.000122143" y2="670.027" stroke="white" stroke-opacity="0.03" stroke-width="2"/>
<line x1="1280" y1="239.938" x2="0.000122143" y2="239.938" stroke="white" stroke-opacity="0.03" stroke-width="2"/>
<line x1="1280" y1="526.664" x2="0.000122143" y2="526.664" stroke="white" stroke-opacity="0.03" stroke-width="2"/>
<line x1="1280" y1="144.363" x2="0.000122143" y2="144.363" stroke="white" stroke-opacity="0.03" stroke-width="2"/>
<line x1="1280" y1="431.089" x2="0.000122143" y2="431.089" stroke="white" stroke-opacity="0.03" stroke-width="2"/>
<line x1="1280" y1="717.814" x2="0.000122143" y2="717.814" stroke="white" stroke-opacity="0.03" stroke-width="2"/>
<line x1="1280" y1="287.726" x2="0.000122143" y2="287.726" stroke="white" stroke-opacity="0.03" stroke-width="2"/>
<line x1="1280" y1="574.451" x2="0.000122143" y2="574.451" stroke="white" stroke-opacity="0.03" stroke-width="2"/>
<line x1="1279.33" y1="2.91409e-08" x2="1279.33" y2="719.203" stroke="white" stroke-opacity="0.03" stroke-width="1.33333"/>
<line x1="559.333" y1="0.796448" x2="559.333" y2="720" stroke="white" stroke-opacity="0.03" stroke-width="1.33333"/>
<line x1="919.333" y1="2.91409e-08" x2="919.333" y2="719.203" stroke="white" stroke-opacity="0.03" stroke-width="1.33333"/>
<line x1="199.333" y1="0.796448" x2="199.333" y2="720" stroke="white" stroke-opacity="0.03" stroke-width="1.33333"/>
<line x1="1239.67" y1="4.37114e-08" x2="1239.67" y2="719.203" stroke="white" stroke-opacity="0.03" stroke-width="2"/>
<line x1="519.667" y1="0.796448" x2="519.667" y2="720" stroke="white" stroke-opacity="0.03" stroke-width="2"/>
<line x1="879.667" y1="4.37114e-08" x2="879.667" y2="719.203" stroke="white" stroke-opacity="0.03" stroke-width="2"/>
<line x1="159.667" y1="0.796448" x2="159.667" y2="720" stroke="white" stroke-opacity="0.03" stroke-width="2"/>
<line x1="1079.67" y1="4.37114e-08" x2="1079.67" y2="719.203" stroke="white" stroke-opacity="0.03" stroke-width="2"/>
<line x1="359.667" y1="0.796448" x2="359.667" y2="720" stroke="white" stroke-opacity="0.03" stroke-width="2"/>
<line x1="719.667" y1="4.37114e-08" x2="719.667" y2="719.203" stroke="white" stroke-opacity="0.03" stroke-width="2"/>
<line x1="1.00005" y1="0.796448" x2="1.00002" y2="720" stroke="white" stroke-opacity="0.03" stroke-width="2"/>
<line x1="1199.67" y1="4.37114e-08" x2="1199.67" y2="719.203" stroke="white" stroke-opacity="0.03" stroke-width="2"/>
<line x1="479.667" y1="0.796448" x2="479.667" y2="720" stroke="white" stroke-opacity="0.03" stroke-width="2"/>
<line x1="839.667" y1="4.37114e-08" x2="839.667" y2="719.203" stroke="white" stroke-opacity="0.03" stroke-width="2"/>
<line x1="119.667" y1="0.796448" x2="119.667" y2="720" stroke="white" stroke-opacity="0.03" stroke-width="2"/>
<line x1="1039.67" y1="4.37114e-08" x2="1039.67" y2="719.203" stroke="white" stroke-opacity="0.03" stroke-width="2"/>
<line x1="319.667" y1="0.796448" x2="319.667" y2="720" stroke="white" stroke-opacity="0.03" stroke-width="2"/>
<line x1="679.667" y1="4.37114e-08" x2="679.667" y2="719.203" stroke="white" stroke-opacity="0.03" stroke-width="2"/>
<line x1="1119.67" y1="4.37114e-08" x2="1119.67" y2="719.203" stroke="white" stroke-opacity="0.03" stroke-width="2"/>
<line x1="399.667" y1="0.796448" x2="399.667" y2="720" stroke="white" stroke-opacity="0.03" stroke-width="2"/>
<line x1="759.667" y1="4.37114e-08" x2="759.667" y2="719.203" stroke="white" stroke-opacity="0.03" stroke-width="2"/>
<line x1="39.6667" y1="0.796448" x2="39.6667" y2="720" stroke="white" stroke-opacity="0.03" stroke-width="2"/>
<line x1="959.667" y1="4.37114e-08" x2="959.667" y2="719.203" stroke="white" stroke-opacity="0.03" stroke-width="2"/>
<line x1="239.667" y1="0.796448" x2="239.667" y2="720" stroke="white" stroke-opacity="0.03" stroke-width="2"/>
<line x1="599.667" y1="4.37114e-08" x2="599.667" y2="719.203" stroke="white" stroke-opacity="0.03" stroke-width="2"/>
<line x1="1159.67" y1="4.37114e-08" x2="1159.67" y2="719.203" stroke="white" stroke-opacity="0.03" stroke-width="2"/>
<line x1="439.667" y1="0.796448" x2="439.667" y2="720" stroke="white" stroke-opacity="0.03" stroke-width="2"/>
<line x1="799.667" y1="4.37114e-08" x2="799.667" y2="719.203" stroke="white" stroke-opacity="0.03" stroke-width="2"/>
<line x1="79.6667" y1="0.796448" x2="79.6667" y2="720" stroke="white" stroke-opacity="0.03" stroke-width="2"/>
<line x1="999.667" y1="4.37114e-08" x2="999.667" y2="719.203" stroke="white" stroke-opacity="0.03" stroke-width="2"/>
<line x1="279.667" y1="0.796448" x2="279.667" y2="720" stroke="white" stroke-opacity="0.03" stroke-width="2"/>
<line x1="639.667" y1="4.37114e-08" x2="639.667" y2="719.203" stroke="white" stroke-opacity="0.03" stroke-width="2"/>
</svg>
