<svg width="171" height="262" viewBox="0 0 171 262" fill="none" xmlns="http://www.w3.org/2000/svg">
<path d="M96.3864 11.4139L17.1022 142.91C15.2888 145.917 17.4547 149.752 20.9667 149.752L61.0749 149.753C64.0656 149.753 66.4897 152.177 66.4897 155.168V239.117H61.7212V261.867H69.0304C69.9547 261.933 70.918 261.533 71.5089 260.566L159.699 116.076C160.801 114.272 159.502 111.958 157.388 111.958H111.623C109.13 111.958 107.11 109.937 107.11 107.445V3.36281C107.11 1.75809 105.875 0.748609 104.565 0.657438L96.3864 0.650635V11.4139Z" fill="url(#paint0_linear_402_645)"/>
<path d="M94.1372 1.96481L9.15506 142.91C7.34176 145.917 9.50759 149.753 13.0194 149.753H53.1281C56.1188 149.753 58.5429 152.177 58.5429 155.168V259.155C58.5429 261.89 62.1362 262.9 63.5611 260.566L151.752 116.076C152.854 114.271 151.555 111.958 149.441 111.958H103.675C101.183 111.958 99.1633 109.937 99.1633 107.445V3.36278C99.1633 0.619897 95.5534 -0.384144 94.1372 1.96481Z" fill="url(#paint1_linear_402_645)"/>
<path d="M94.1372 1.96481L9.15506 142.91C7.34176 145.917 9.50759 149.753 13.0194 149.753H53.1281C56.1188 149.753 58.5429 152.177 58.5429 155.168V259.155C58.5429 261.89 62.1362 262.9 63.5611 260.566L151.752 116.076C152.854 114.271 151.555 111.958 149.441 111.958H103.675C101.183 111.958 99.1633 109.937 99.1633 107.445V3.36278C99.1633 0.619897 95.5534 -0.384144 94.1372 1.96481Z" fill="url(#paint2_linear_402_645)"/>
<path d="M94.1372 1.96481L9.15506 142.91C7.34176 145.917 9.50759 149.753 13.0194 149.753H53.1281C56.1188 149.753 58.5429 152.177 58.5429 155.168V259.155C58.5429 261.89 62.1362 262.9 63.5611 260.566L151.752 116.076C152.854 114.271 151.555 111.958 149.441 111.958H103.675C101.183 111.958 99.1633 109.937 99.1633 107.445V3.36278C99.1633 0.619897 95.5534 -0.384144 94.1372 1.96481Z" fill="url(#paint3_radial_402_645)"/>
<path d="M94.1372 1.96481L9.15506 142.91C7.34176 145.917 9.50759 149.753 13.0194 149.753H53.1281C56.1188 149.753 58.5429 152.177 58.5429 155.168V259.155C58.5429 261.89 62.1362 262.9 63.5611 260.566L151.752 116.076C152.854 114.271 151.555 111.958 149.441 111.958H103.675C101.183 111.958 99.1633 109.937 99.1633 107.445V3.36278C99.1633 0.619897 95.5534 -0.384144 94.1372 1.96481Z" fill="url(#paint4_linear_402_645)"/>
<path d="M94.1372 1.96481L9.15506 142.91C7.34176 145.917 9.50759 149.753 13.0194 149.753H53.1281C56.1188 149.753 58.5429 152.177 58.5429 155.168V259.155C58.5429 261.89 62.1362 262.9 63.5611 260.566L151.752 116.076C152.854 114.271 151.555 111.958 149.441 111.958H103.675C101.183 111.958 99.1633 109.937 99.1633 107.445V3.36278C99.1633 0.619897 95.5534 -0.384144 94.1372 1.96481Z" fill="url(#paint5_radial_402_645)"/>
<defs>
<linearGradient id="paint0_linear_402_645" x1="112.744" y1="51.873" x2="112.744" y2="204.915" gradientUnits="userSpaceOnUse">
<stop stop-color="#FFBD61"/>
<stop offset="1" stop-color="#EB5C74"/>
</linearGradient>
<linearGradient id="paint1_linear_402_645" x1="80.3266" y1="81.8482" x2="80.3266" y2="232.852" gradientUnits="userSpaceOnUse">
<stop stop-color="#FFA547"/>
<stop offset="1" stop-color="#F14B49"/>
</linearGradient>
<linearGradient id="paint2_linear_402_645" x1="80.3266" y1="0.650611" x2="80.3266" y2="108.196" gradientUnits="userSpaceOnUse">
<stop stop-color="#DF9844"/>
<stop offset="1" stop-color="#DF9844" stop-opacity="0"/>
</linearGradient>
<radialGradient id="paint3_radial_402_645" cx="0" cy="0" r="1" gradientUnits="userSpaceOnUse" gradientTransform="translate(100.028 51.4636) rotate(90) scale(62.7496 13.6908)">
<stop stop-color="#FE9052"/>
<stop offset="1" stop-color="#FE9052" stop-opacity="0"/>
</radialGradient>
<linearGradient id="paint4_linear_402_645" x1="60.8008" y1="55.823" x2="64.9773" y2="58.3288" gradientUnits="userSpaceOnUse">
<stop stop-color="#C76C38"/>
<stop offset="1" stop-color="#C76C38" stop-opacity="0"/>
</linearGradient>
<radialGradient id="paint5_radial_402_645" cx="0" cy="0" r="1" gradientUnits="userSpaceOnUse" gradientTransform="translate(100.59 49.4445) rotate(90) scale(65.0002 23.6917)">
<stop stop-color="#FFB54B"/>
<stop offset="1" stop-color="#FFB54B" stop-opacity="0"/>
</radialGradient>
</defs>
</svg>
